<?xml version="1.0" standalone="no"?><!DOCTYPE svg PUBLIC "-//W3C//DTD SVG 1.1//EN" "http://www.w3.org/Graphics/SVG/1.1/DTD/svg11.dtd"><svg t="1551086235272" class="icon" style="" viewBox="0 0 1024 1024" version="1.1" xmlns="http://www.w3.org/2000/svg" p-id="1627" xmlns:xlink="http://www.w3.org/1999/xlink" width="200" height="200"><defs><style type="text/css"></style></defs><path d="M428.6 2C193.5 2 2.2 193.3 2.2 428.4s191.3 426.4 426.4 426.4S855 663.5 855 428.4 663.8 2 428.6 2z m0 823.4c-218.9 0-397-178.1-397-397s178.1-397 397-397 397 178.1 397 397-178 397-397 397z" fill="#333234" p-id="1628"></path><path d="M447 751.9c-170.3 0-308.8-145.1-308.8-323.5 0-8.1-6.6-14.7-14.7-14.7s-14.7 6.6-14.7 14.7c0 194.6 151.7 352.9 338.2 352.9 8.1 0 14.7-6.6 14.7-14.7s-6.6-14.7-14.7-14.7z" fill="#333234" p-id="1629"></path><path d="M527.9 733.5m-16.5 0a16.5 16.5 0 1 0 33 0 16.5 16.5 0 1 0-33 0Z" fill="#333234" p-id="1630"></path><path d="M1019.7 998.6L810.2 796.5c-5.9-5.6-15.2-5.5-20.8 0.4-5.7 5.8-5.5 15.1 0.3 20.8l209.5 202.2c2.9 2.8 6.5 4.1 10.2 4.1 3.8 0 7.7-1.5 10.6-4.5 5.7-5.9 5.5-15.2-0.3-20.9z" fill="#333234" p-id="1631"></path></svg>